<svg xmlns="http://www.w3.org/2000/svg" xmlns:xlink="http://www.w3.org/1999/xlink" width="2380" zoomAndPan="magnify" viewBox="0 0 1784.88 1784.99993" height="2380" preserveAspectRatio="xMidYMid meet" version="1.0"><defs><g/><clipPath id="adc1dea2e6"><path d="M 0 0.0585938 L 1784.761719 0.0585938 L 1784.761719 1784.9375 L 0 1784.9375 Z M 0 0.0585938 " clip-rule="nonzero"/></clipPath><clipPath id="107a440868"><path d="M 289 0.0585938 L 1505 0.0585938 L 1505 1784.9375 L 289 1784.9375 Z M 289 0.0585938 " clip-rule="nonzero"/></clipPath><clipPath id="c9ec2b7479"><rect x="0" width="1216" y="0" height="1785"/></clipPath><clipPath id="2fdfab8cb2"><path d="M 37 622 L 888 622 L 888 1759 L 37 1759 Z M 37 622 " clip-rule="nonzero"/></clipPath><clipPath id="acc7dfe25c"><path d="M 74.082031 621.949219 L 888.265625 1754.699219 L 612.386719 1952.992188 L -201.796875 820.242188 Z M 74.082031 621.949219 " clip-rule="nonzero"/></clipPath><clipPath id="30207d942d"><path d="M 74.082031 621.949219 L 888.265625 1754.699219 L 612.386719 1952.992188 L -201.796875 820.242188 Z M 74.082031 621.949219 " clip-rule="nonzero"/></clipPath><clipPath id="8bf8c2187d"><path d="M 897 0.0585938 L 1784.761719 0.0585938 L 1784.761719 1164 L 897 1164 Z M 897 0.0585938 " clip-rule="nonzero"/></clipPath><clipPath id="8ebe62ef2e"><path d="M 1172.722656 -167.71875 L 1986.90625 965.03125 L 1711.027344 1163.324219 L 896.84375 30.574219 Z M 1172.722656 -167.71875 " clip-rule="nonzero"/></clipPath><clipPath id="261f6dfadc"><path d="M 0.78125 27 L 852 27 L 852 1163 L 0.78125 1163 Z M 0.78125 27 " clip-rule="nonzero"/></clipPath><clipPath id="82027db1a6"><path d="M 275.722656 -167.71875 L 1089.90625 965.03125 L 814.027344 1163.324219 L -0.15625 30.574219 Z M 275.722656 -167.71875 " clip-rule="nonzero"/></clipPath><clipPath id="22c768831d"><path d="M -0.1875 30.59375 L 814 1163.34375 L 1089.878906 965.050781 L 275.691406 -167.699219 Z M -0.1875 30.59375 " clip-rule="nonzero"/></clipPath><clipPath id="4b6a57fda4"><path d="M -0.1875 30.59375 L 814 1163.34375 L 1089.878906 965.050781 L 275.691406 -167.699219 Z M -0.1875 30.59375 " clip-rule="nonzero"/></clipPath><clipPath id="40a27bec7f"><rect x="0" width="888" y="0" height="1164"/></clipPath><clipPath id="e7073ea7f7"><rect x="0" width="1785" y="0" height="1785"/></clipPath></defs><g clip-path="url(#adc1dea2e6)"><g transform="matrix(1, 0, 0, 1, 0, -0.000000000000097387)"><g clip-path="url(#e7073ea7f7)"><g clip-path="url(#107a440868)"><g transform="matrix(1, 0, 0, 1, 289, -0.000000000000097387)"><g clip-path="url(#c9ec2b7479)"><g fill="#000000" fill-opacity="1"><g transform="translate(0.722116, 1314.821498)"><g><path d="M 686.140625 -522.359375 L 1115.3125 -522.359375 L 1115.3125 0 L 1087.078125 0 L 1087.078125 -234.359375 C 1048.492188 -153.410156 989.90625 -90.347656 911.3125 -45.171875 C 832.726562 0.00390625 736.019531 22.59375 621.1875 22.59375 C 510.125 22.59375 415.769531 1.414062 338.125 -40.9375 C 260.476562 -83.289062 201.179688 -143.054688 160.234375 -220.234375 C 119.296875 -297.410156 98.828125 -388.707031 98.828125 -494.125 C 98.828125 -599.539062 119.296875 -690.835938 160.234375 -768.015625 C 201.179688 -845.191406 260.710938 -904.957031 338.828125 -947.3125 C 416.953125 -989.664062 512.015625 -1010.84375 624.015625 -1010.84375 C 751.078125 -1010.84375 856.253906 -984.019531 939.546875 -930.375 C 1022.847656 -876.726562 1081.4375 -801.898438 1115.3125 -705.890625 L 1087.078125 -705.890625 C 1053.203125 -793.429688 997.203125 -861.4375 919.078125 -909.90625 C 840.960938 -958.375 742.609375 -982.609375 624.015625 -982.609375 C 517.660156 -982.609375 427.539062 -962.84375 353.65625 -923.3125 C 279.769531 -883.78125 223.53125 -827.539062 184.9375 -754.59375 C 146.351562 -681.65625 127.0625 -594.832031 127.0625 -494.125 C 127.0625 -393.414062 146.351562 -306.585938 184.9375 -233.640625 C 223.53125 -160.703125 279.769531 -104.46875 353.65625 -64.9375 C 427.539062 -25.40625 517.660156 -5.640625 624.015625 -5.640625 C 742.609375 -5.640625 840.960938 -29.875 919.078125 -78.34375 C 997.203125 -126.820312 1053.203125 -194.828125 1087.078125 -282.359375 L 1087.078125 -494.125 L 686.140625 -494.125 Z M 686.140625 -522.359375 "/></g></g></g></g></g></g><g fill="#000000" fill-opacity="1"><g transform="translate(498.932091, 1504.669669)"><g><path d="M 59.875 -47.328125 L 104.359375 -47.328125 L 104.359375 0 L 95.90625 0 L 94.921875 -14.03125 C 91.023438 -8.976562 85.785156 -5.046875 79.203125 -2.234375 C 72.617188 0.578125 64.769531 1.984375 55.65625 1.984375 C 45.21875 1.984375 36.394531 0.144531 29.1875 -3.53125 C 21.988281 -7.21875 16.523438 -12.476562 12.796875 -19.3125 C 9.066406 -26.144531 7.203125 -34.203125 7.203125 -43.484375 C 7.203125 -52.835938 9.085938 -60.910156 12.859375 -67.703125 C 16.628906 -74.492188 22.21875 -79.734375 29.625 -83.421875 C 37.039062 -87.109375 46.175781 -88.953125 57.03125 -88.953125 C 69.78125 -88.953125 80.148438 -86.445312 88.140625 -81.4375 C 96.140625 -76.425781 101.546875 -69.445312 104.359375 -60.5 L 94.421875 -60.5 C 91.679688 -67.039062 87.207031 -72.09375 81 -75.65625 C 74.789062 -79.21875 66.921875 -81 57.390625 -81 C 44.304688 -81 34.328125 -77.644531 27.453125 -70.9375 C 20.578125 -64.226562 17.140625 -55.078125 17.140625 -43.484375 C 17.140625 -31.890625 20.578125 -22.738281 27.453125 -16.03125 C 34.328125 -9.320312 44.304688 -5.96875 57.390625 -5.96875 C 66.921875 -5.96875 74.789062 -7.742188 81 -11.296875 C 87.207031 -14.859375 91.679688 -19.914062 94.421875 -26.46875 L 94.421875 -39.375 L 59.875 -39.375 Z M 59.875 -47.328125 "/></g></g></g><g fill="#000000" fill-opacity="1"><g transform="translate(610.480587, 1504.669669)"><g><path d="M 8.453125 -86.96875 L 18.390625 -86.96875 L 18.390625 -38.265625 C 18.390625 -27.992188 21.390625 -20.039062 27.390625 -14.40625 C 33.398438 -8.78125 42.410156 -5.96875 54.421875 -5.96875 C 66.421875 -5.96875 75.378906 -8.78125 81.296875 -14.40625 C 87.222656 -20.039062 90.1875 -27.992188 90.1875 -38.265625 L 90.1875 -86.96875 L 100.140625 -86.96875 L 100.140625 -38.265625 C 100.140625 -25.585938 96.265625 -15.707031 88.515625 -8.625 C 80.773438 -1.550781 69.410156 1.984375 54.421875 1.984375 C 39.421875 1.984375 28.007812 -1.550781 20.1875 -8.625 C 12.363281 -15.707031 8.453125 -25.585938 8.453125 -38.265625 Z M 8.453125 -86.96875 "/></g></g></g><g fill="#000000" fill-opacity="1"><g transform="translate(719.047828, 1504.669669)"><g><path d="M 1.25 -86.96875 L 80.25 -86.96875 L 80.25 -79.015625 L 45.84375 -79.015625 L 45.84375 0 L 35.78125 0 L 35.78125 -79.015625 L 1.25 -79.015625 Z M 1.25 -86.96875 "/></g></g></g><g fill="#000000" fill-opacity="1"><g transform="translate(800.535386, 1504.669669)"><g><path d="M 8.453125 -86.96875 L 18.390625 -86.96875 L 18.390625 0 L 8.453125 0 Z M 8.453125 -86.96875 "/></g></g></g><g fill="#000000" fill-opacity="1"><g transform="translate(827.118201, 1504.669669)"><g><path d="M 55.65625 -115.78125 L 65.71875 -115.78125 L 51.3125 -97.890625 L 43.359375 -97.890625 Z M 8.453125 -86.96875 L 87.46875 -86.96875 L 87.46875 -79.015625 L 18.390625 -79.015625 L 18.390625 -47.453125 L 75.03125 -47.453125 L 75.03125 -39.5 L 18.390625 -39.5 L 18.390625 -7.953125 L 87.46875 -7.953125 L 87.46875 0 L 8.453125 0 Z M 8.453125 -86.96875 "/></g></g></g><g fill="#000000" fill-opacity="1"><g transform="translate(919.785423, 1504.669669)"><g><path d="M 18.140625 -79.015625 L 18.140625 -40.25 L 55.65625 -40.25 C 62.613281 -40.25 67.957031 -41.925781 71.6875 -45.28125 C 75.414062 -48.632812 77.28125 -53.414062 77.28125 -59.625 C 77.28125 -65.84375 75.394531 -70.628906 71.625 -73.984375 C 67.851562 -77.335938 62.53125 -79.015625 55.65625 -79.015625 Z M 18.140625 -32.296875 L 18.140625 0 L 8.203125 0 L 8.203125 -86.96875 L 58.390625 -86.96875 C 67.335938 -86.96875 74.378906 -84.6875 79.515625 -80.125 C 84.648438 -75.570312 87.21875 -69.070312 87.21875 -60.625 C 87.21875 -54.832031 85.992188 -49.988281 83.546875 -46.09375 C 81.097656 -42.195312 77.597656 -39.296875 73.046875 -37.390625 C 77.679688 -36.316406 81.203125 -34.082031 83.609375 -30.6875 C 86.015625 -27.289062 87.21875 -23.148438 87.21875 -18.265625 L 87.21875 -4.34375 C 87.21875 -3.519531 87.421875 -2.691406 87.828125 -1.859375 C 88.242188 -1.035156 88.867188 -0.414062 89.703125 0 L 79.265625 0 C 78.679688 -0.414062 78.203125 -1.035156 77.828125 -1.859375 C 77.460938 -2.691406 77.28125 -3.519531 77.28125 -4.34375 L 77.28125 -18.890625 C 77.28125 -21.285156 76.675781 -23.5 75.46875 -25.53125 C 74.269531 -27.5625 72.65625 -29.195312 70.625 -30.4375 C 68.59375 -31.675781 66.378906 -32.296875 63.984375 -32.296875 Z M 18.140625 -32.296875 "/></g></g></g><g fill="#000000" fill-opacity="1"><g transform="translate(1015.930802, 1504.669669)"><g><path d="M 18.140625 -79.015625 L 18.140625 -40.25 L 55.65625 -40.25 C 62.613281 -40.25 67.957031 -41.925781 71.6875 -45.28125 C 75.414062 -48.632812 77.28125 -53.414062 77.28125 -59.625 C 77.28125 -65.84375 75.394531 -70.628906 71.625 -73.984375 C 67.851562 -77.335938 62.53125 -79.015625 55.65625 -79.015625 Z M 18.140625 -32.296875 L 18.140625 0 L 8.203125 0 L 8.203125 -86.96875 L 58.390625 -86.96875 C 67.335938 -86.96875 74.378906 -84.6875 79.515625 -80.125 C 84.648438 -75.570312 87.21875 -69.070312 87.21875 -60.625 C 87.21875 -54.832031 85.992188 -49.988281 83.546875 -46.09375 C 81.097656 -42.195312 77.597656 -39.296875 73.046875 -37.390625 C 77.679688 -36.316406 81.203125 -34.082031 83.609375 -30.6875 C 86.015625 -27.289062 87.21875 -23.148438 87.21875 -18.265625 L 87.21875 -4.34375 C 87.21875 -3.519531 87.421875 -2.691406 87.828125 -1.859375 C 88.242188 -1.035156 88.867188 -0.414062 89.703125 0 L 79.265625 0 C 78.679688 -0.414062 78.203125 -1.035156 77.828125 -1.859375 C 77.460938 -2.691406 77.28125 -3.519531 77.28125 -4.34375 L 77.28125 -18.890625 C 77.28125 -21.285156 76.675781 -23.5 75.46875 -25.53125 C 74.269531 -27.5625 72.65625 -29.195312 70.625 -30.4375 C 68.59375 -31.675781 66.378906 -32.296875 63.984375 -32.296875 Z M 18.140625 -32.296875 "/></g></g></g><g fill="#000000" fill-opacity="1"><g transform="translate(1112.076135, 1504.669669)"><g><path d="M 8.453125 -86.96875 L 87.46875 -86.96875 L 87.46875 -79.015625 L 18.390625 -79.015625 L 18.390625 -47.453125 L 75.03125 -47.453125 L 75.03125 -39.5 L 18.390625 -39.5 L 18.390625 -7.953125 L 87.46875 -7.953125 L 87.46875 0 L 8.453125 0 Z M 8.453125 -86.96875 "/></g></g></g><g fill="#000000" fill-opacity="1"><g transform="translate(1204.743379, 1504.669669)"><g><path d="M 5.21875 -86.96875 L 84.734375 -86.96875 L 84.734375 -80.625 L 21.125 -7.953125 L 84.734375 -7.953125 L 84.734375 0 L 5.71875 0 L 5.71875 -6.34375 L 69.328125 -79.015625 L 5.21875 -79.015625 Z M 5.21875 -86.96875 "/></g></g></g><g clip-path="url(#2fdfab8cb2)"><g clip-path="url(#acc7dfe25c)"><g clip-path="url(#30207d942d)"><path fill="#000000" d="M 208.507812 1384.84375 C 203.640625 1378.074219 198.871094 1371.234375 194.191406 1364.332031 C 189.515625 1357.425781 184.9375 1350.460938 180.457031 1343.425781 C 175.972656 1336.394531 171.589844 1329.300781 167.308594 1322.144531 C 163.023438 1314.992188 158.84375 1307.777344 154.761719 1300.507812 C 150.679688 1293.234375 146.699219 1285.90625 142.824219 1278.523438 C 138.945312 1271.140625 135.171875 1263.707031 131.503906 1256.21875 C 127.835938 1248.730469 124.269531 1241.191406 120.8125 1233.601562 C 117.355469 1226.015625 114.003906 1218.378906 110.757812 1210.699219 C 107.511719 1203.015625 104.375 1195.289062 101.347656 1187.519531 C 98.320312 1179.75 95.398438 1171.941406 92.589844 1164.089844 C 89.777344 1156.238281 87.078125 1148.351562 84.488281 1140.421875 C 81.898438 1132.496094 79.421875 1124.535156 77.054688 1116.539062 C 74.6875 1108.542969 72.429688 1100.515625 70.289062 1092.457031 C 68.144531 1084.398438 66.117188 1076.308594 64.199219 1068.195312 C 62.28125 1060.078125 60.480469 1051.9375 58.789062 1043.773438 C 57.101562 1035.605469 55.527344 1027.417969 54.066406 1019.207031 C 52.605469 1010.996094 51.261719 1002.769531 50.03125 994.519531 C 48.800781 986.273438 47.6875 978.007812 46.6875 969.730469 C 45.691406 961.453125 44.804688 953.160156 44.039062 944.855469 C 43.273438 936.554688 42.621094 928.242188 42.085938 919.917969 C 41.550781 911.597656 41.132812 903.269531 40.832031 894.9375 C 40.53125 886.601562 40.34375 878.265625 40.273438 869.925781 C 40.207031 861.589844 40.253906 853.25 40.417969 844.914062 C 40.582031 836.574219 40.863281 828.242188 41.261719 819.914062 C 41.65625 811.582031 42.171875 803.261719 42.800781 794.945312 C 43.429688 786.628906 44.175781 778.324219 45.039062 770.03125 C 45.902344 761.738281 46.878906 753.457031 47.972656 745.191406 C 49.066406 736.921875 50.277344 728.671875 51.601562 720.441406 C 52.925781 712.207031 54.363281 703.992188 55.917969 695.800781 C 57.472656 687.609375 59.140625 679.4375 60.921875 671.292969 C 62.703125 663.144531 64.601562 655.027344 66.609375 646.933594 C 68.621094 638.839844 70.742188 630.777344 72.976562 622.742188 L 69.085938 625.539062 C 60.921875 655.65625 54.3125 686.113281 49.261719 716.90625 C 44.542969 745.421875 41.21875 774.097656 39.289062 802.9375 C 37.355469 831.773438 36.824219 860.640625 37.695312 889.53125 C 38.566406 918.417969 40.832031 947.199219 44.496094 975.871094 C 48.160156 1004.539062 53.203125 1032.964844 59.625 1061.144531 C 66.242188 1090.367188 74.304688 1119.183594 83.824219 1147.589844 C 93.339844 1176 104.257812 1203.859375 116.582031 1231.171875 C 128.902344 1258.480469 142.566406 1285.101562 157.570312 1311.035156 C 172.574219 1336.96875 188.84375 1362.082031 206.375 1386.378906 C 223.8125 1410.726562 242.425781 1434.140625 262.21875 1456.613281 C 282.011719 1479.089844 302.882812 1500.511719 324.835938 1520.886719 C 346.785156 1541.257812 369.703125 1560.480469 393.589844 1578.542969 C 417.476562 1596.609375 442.207031 1613.429688 467.785156 1629.003906 C 492.449219 1644.074219 517.785156 1657.914062 543.792969 1670.527344 C 569.800781 1683.136719 596.355469 1694.457031 623.460938 1704.488281 C 650.570312 1714.523438 678.097656 1723.21875 706.046875 1730.578125 C 733.996094 1737.9375 762.238281 1743.925781 790.769531 1748.546875 C 821.421875 1753.402344 852.246094 1756.636719 883.238281 1758.246094 L 887.128906 1755.449219 C 878.8125 1755.007812 870.503906 1754.453125 862.199219 1753.777344 C 853.898438 1753.105469 845.609375 1752.316406 837.328125 1751.410156 C 829.046875 1750.507812 820.78125 1749.488281 812.53125 1748.351562 C 804.277344 1747.214844 796.042969 1745.964844 787.828125 1744.597656 C 779.609375 1743.234375 771.414062 1741.753906 763.238281 1740.160156 C 755.0625 1738.5625 746.914062 1736.855469 738.785156 1735.035156 C 730.65625 1733.210938 722.554688 1731.277344 714.484375 1729.226562 C 706.410156 1727.179688 698.367188 1725.019531 690.351562 1722.746094 C 682.339844 1720.472656 674.359375 1718.085938 666.414062 1715.589844 C 658.464844 1713.09375 650.554688 1710.488281 642.683594 1707.773438 C 634.808594 1705.054688 626.972656 1702.226562 619.179688 1699.292969 C 611.382812 1696.355469 603.632812 1693.3125 595.921875 1690.160156 C 588.210938 1687.007812 580.546875 1683.75 572.929688 1680.382812 C 565.308594 1677.015625 557.738281 1673.542969 550.21875 1669.964844 C 542.695312 1666.386719 535.226562 1662.707031 527.804688 1658.917969 C 520.386719 1655.132812 513.023438 1651.242188 505.710938 1647.25 C 498.402344 1643.257812 491.148438 1639.164062 483.953125 1634.96875 C 476.757812 1630.773438 469.621094 1626.480469 462.546875 1622.085938 C 455.46875 1617.691406 448.457031 1613.199219 441.503906 1608.609375 C 434.554688 1604.019531 427.667969 1599.332031 420.851562 1594.550781 C 414.03125 1589.769531 407.277344 1584.890625 400.59375 1579.921875 C 393.910156 1574.949219 387.300781 1569.886719 380.757812 1564.730469 C 374.214844 1559.574219 367.746094 1554.328125 361.351562 1548.992188 C 354.957031 1543.65625 348.636719 1538.230469 342.390625 1532.71875 C 336.148438 1527.207031 329.980469 1521.605469 323.894531 1515.921875 C 317.808594 1510.234375 311.800781 1504.46875 305.875 1498.613281 C 299.945312 1492.761719 294.105469 1486.828125 288.34375 1480.8125 C 282.582031 1474.792969 276.90625 1468.699219 271.316406 1462.523438 C 265.726562 1456.351562 260.222656 1450.097656 254.808594 1443.769531 C 249.390625 1437.441406 244.066406 1431.039062 238.828125 1424.5625 C 233.589844 1418.085938 228.445312 1411.535156 223.390625 1404.914062 C 218.335938 1398.292969 213.375 1391.605469 208.507812 1384.84375 Z M 208.507812 1384.84375 " fill-opacity="1" fill-rule="nonzero"/></g></g></g><g clip-path="url(#8bf8c2187d)"><g clip-path="url(#8ebe62ef2e)"><g transform="matrix(1, 0, 0, 1, 897, -0.000000000000097387)"><g clip-path="url(#40a27bec7f)"><g clip-path="url(#261f6dfadc)"><g clip-path="url(#82027db1a6)"><g clip-path="url(#22c768831d)"><g clip-path="url(#4b6a57fda4)"><path fill="#000000" d="M 680.082031 401.160156 C 675.214844 394.386719 670.253906 387.683594 665.203125 381.050781 C 660.148438 374.417969 655.003906 367.855469 649.765625 361.367188 C 644.527344 354.878906 639.199219 348.464844 633.785156 342.121094 C 628.367188 335.78125 622.863281 329.519531 617.273438 323.332031 C 611.679688 317.144531 606.003906 311.039062 600.242188 305.011719 C 594.480469 298.984375 588.632812 293.035156 582.707031 287.171875 C 576.777344 281.308594 570.765625 275.527344 564.675781 269.832031 C 558.585938 264.136719 552.417969 258.523438 546.171875 253 C 539.925781 247.476562 533.601562 242.042969 527.203125 236.695312 C 520.804688 231.347656 514.332031 226.089844 507.785156 220.925781 C 501.238281 215.757812 494.621094 210.6875 487.933594 205.703125 C 481.246094 200.722656 474.488281 195.835938 467.664062 191.042969 C 460.839844 186.253906 453.949219 181.558594 446.996094 176.957031 C 440.039062 172.359375 433.019531 167.855469 425.9375 163.453125 C 418.855469 159.050781 411.714844 154.746094 404.511719 150.542969 C 397.3125 146.339844 390.050781 142.238281 382.734375 138.234375 C 375.417969 134.234375 368.046875 130.335938 360.621094 126.542969 C 353.195312 122.75 345.71875 119.058594 338.191406 115.472656 C 330.660156 111.886719 323.085938 108.40625 315.457031 105.035156 C 307.832031 101.660156 300.160156 98.394531 292.441406 95.234375 C 284.726562 92.074219 276.964844 89.023438 269.164062 86.082031 C 261.359375 83.140625 253.519531 80.308594 245.636719 77.585938 C 237.753906 74.863281 229.835938 72.25 221.878906 69.75 C 213.925781 67.246094 205.9375 64.855469 197.914062 62.578125 C 189.894531 60.300781 181.84375 58.136719 173.757812 56.082031 C 165.675781 54.027344 157.566406 52.089844 149.429688 50.261719 C 141.292969 48.4375 133.132812 46.726562 124.949219 45.125 C 116.765625 43.527344 108.558594 42.042969 100.335938 40.675781 C 92.109375 39.308594 83.867188 38.054688 75.605469 36.914062 C 67.34375 35.777344 59.066406 34.753906 50.777344 33.847656 C 42.488281 32.941406 34.1875 32.148438 25.878906 31.476562 C 17.566406 30.800781 9.246094 30.242188 0.917969 29.800781 L 4.8125 27.003906 C 35.960938 28.863281 66.933594 32.304688 97.730469 37.332031 C 126.261719 41.949219 154.503906 47.9375 182.453125 55.300781 C 210.402344 62.660156 237.933594 71.355469 265.039062 81.386719 C 292.144531 91.417969 318.699219 102.742188 344.707031 115.351562 C 370.714844 127.960938 396.050781 141.800781 420.714844 156.871094 C 446.304688 172.453125 471.046875 189.28125 494.941406 207.359375 C 518.835938 225.433594 541.761719 244.660156 563.71875 265.046875 C 585.679688 285.429688 606.558594 306.863281 626.355469 329.351562 C 646.15625 351.839844 664.777344 375.261719 682.214844 399.625 C 699.738281 423.910156 715.996094 449.015625 730.992188 474.941406 C 745.984375 500.867188 759.640625 527.476562 771.953125 554.777344 C 784.269531 582.074219 795.183594 609.921875 804.691406 638.320312 C 814.203125 666.71875 822.265625 695.523438 828.875 724.730469 C 835.296875 752.914062 840.339844 781.335938 844.003906 810.007812 C 847.667969 838.675781 849.933594 867.457031 850.804688 896.347656 C 851.675781 925.238281 851.144531 954.101562 849.210938 982.941406 C 847.28125 1011.777344 843.957031 1040.457031 839.242188 1068.972656 C 834.074219 1099.574219 827.316406 1129.820312 818.964844 1159.710938 L 815.074219 1162.507812 C 817.304688 1154.484375 819.425781 1146.429688 821.433594 1138.34375 C 823.441406 1130.261719 825.335938 1122.152344 827.117188 1114.015625 C 828.898438 1105.878906 830.566406 1097.71875 832.121094 1089.535156 C 833.675781 1081.351562 835.113281 1073.148438 836.4375 1064.925781 C 837.761719 1056.699219 838.972656 1048.460938 840.066406 1040.203125 C 841.160156 1031.945312 842.140625 1023.675781 843.003906 1015.390625 C 843.863281 1007.105469 844.613281 998.8125 845.242188 990.503906 C 845.875 982.199219 846.390625 973.886719 846.789062 965.566406 C 847.191406 957.246094 847.472656 948.921875 847.640625 940.597656 C 847.804688 932.269531 847.855469 923.941406 847.792969 915.609375 C 847.726562 907.28125 847.542969 898.953125 847.246094 890.628906 C 846.945312 882.308594 846.53125 873.988281 846 865.675781 C 845.46875 857.363281 844.824219 849.058594 844.0625 840.765625 C 843.296875 832.472656 842.421875 824.1875 841.425781 815.917969 C 840.433594 807.648438 839.324219 799.394531 838.097656 791.15625 C 836.875 782.917969 835.535156 774.695312 834.078125 766.496094 C 832.625 758.292969 831.058594 750.113281 829.375 741.957031 C 827.691406 733.796875 825.894531 725.667969 823.984375 717.558594 C 822.078125 709.449219 820.054688 701.371094 817.917969 693.320312 C 815.78125 685.269531 813.535156 677.25 811.175781 669.261719 C 808.816406 661.273438 806.34375 653.320312 803.765625 645.402344 C 801.183594 637.480469 798.492188 629.601562 795.6875 621.753906 C 792.886719 613.910156 789.976562 606.109375 786.957031 598.34375 C 783.9375 590.582031 780.808594 582.863281 777.574219 575.1875 C 774.339844 567.511719 770.996094 559.882812 767.546875 552.300781 C 764.097656 544.71875 760.546875 537.1875 756.886719 529.703125 C 753.226562 522.222656 749.464844 514.792969 745.597656 507.414062 C 741.734375 500.035156 737.765625 492.714844 733.691406 485.449219 C 729.621094 478.179688 725.449219 470.972656 721.179688 463.820312 C 716.90625 456.671875 712.535156 449.582031 708.066406 442.554688 C 703.59375 435.527344 699.027344 428.5625 694.363281 421.660156 C 689.695312 414.761719 684.9375 407.925781 680.082031 401.160156 Z M 680.082031 401.160156 " fill-opacity="1" fill-rule="nonzero"/></g></g></g></g></g></g></g></g></g></g></g></svg>